<svg width="64" height="64" viewBox="0 0 64 64" fill="none" xmlns="http://www.w3.org/2000/svg">
<circle cx="32" cy="32" r="32" fill="#EEEEEE"/>
<path fill-rule="evenodd" clip-rule="evenodd" d="M41.9035 62.438C38.7851 63.452 35.4566 64 32 64C29.4774 64 27.023 63.7081 24.6687 63.1563L24.8895 49.7985C24.9101 48.5524 25.3952 47.359 26.2499 46.4521L29.4819 43.0221C30.4027 42.045 30.8918 40.7386 30.8391 39.397L29.9792 17.4945C29.947 16.6738 29.2723 16.025 28.4509 16.025C27.6063 16.025 26.9215 16.7098 26.9215 17.5545V37.3108C26.9215 37.863 26.4738 38.3108 25.9215 38.3108C25.3692 38.3108 24.9215 37.863 24.9215 37.3108V17.025C24.9215 16.4728 24.4738 16.025 23.9215 16.025C23.3692 16.025 22.9215 16.4728 22.9215 17.025V37.3108C22.9215 37.863 22.4738 38.3108 21.9215 38.3108C21.3692 38.3108 20.9215 37.863 20.9215 37.3108V17.025C20.9215 16.4728 20.4738 16.025 19.9215 16.025C19.3692 16.025 18.9215 16.4728 18.9215 17.025V37.3108C18.9215 37.863 18.4738 38.3108 17.9215 38.3108C17.3692 38.3108 16.9215 37.863 16.9215 37.3108V17.5545C16.9215 16.7098 16.2367 16.025 15.3921 16.025C14.5707 16.025 13.896 16.6738 13.8638 17.4945L13.0039 39.397C12.9512 40.7386 13.4403 42.045 14.3611 43.0221L17.5931 46.4521C18.4478 47.359 18.9329 48.5524 18.9535 49.7985L19.1439 61.3127C7.87207 56.362 0 45.1003 0 32C0 14.3269 14.3269 0 32 0C49.6731 0 64 14.3269 64 32C64 43.4514 57.9849 53.4979 48.9419 59.1523V52.7533L48.9419 47.7533V16.9261C48.9419 16.3108 48.3958 15.8567 47.8089 16.0418C45.9094 16.6409 42.1405 18.3516 40.6129 22.7533C38.7534 28.1115 36.4786 43.8375 36.0133 47.1403C35.9596 47.5216 36.1325 47.8881 36.454 48.0999L42.976 52.3954C43.3064 52.613 43.4774 53.0049 43.4123 53.3951L41.9035 62.438Z" fill="#A8A8A8"/>
</svg>
